# xmcd
#
# Track frame offsets:
#	150
#	12932
#	35010
#	52597
#	63087
#	80267
#	95647
#	113205
#	123362
#	135725
#	152107
#	167262
#	178302
#	196572
#	205045
#	216205
#	217915
#	219587
#
# Disc length: 2944 seconds
#
# Revision: 0
# Processed by: cddbd v1.5.2PL0 Copyright (c) Steve Scherf et al.
# Submitted via: EasyCDDAExtractor 10.2.0.1
#
DISCID=ef0b7e12
DTITLE=Various Artist - Kevin Spencer Vol. 14
DYEAR=2000
DGENRE=Gospel
TTITLE0=Kevin Spencer and Friends - See You In The Morning
TTITLE1=Tammy Jones Robinette - Mama's In The Sweet Bye and Bye
TTITLE2=Dixie Melody Boys - They're Playing Our Song
TTITLE3=Biil Fields - Jesus Was Gone
TTITLE4=Ed Enoch and Golden Covenant - Lord I'm Coming Home
TTITLE5=Wade Spencer - Jesus Hold My Hand
TTITLE6=Dixie Echoes - He Looked Through The Pain
TTITLE7=3 For 1 - I'll Soon Be Gone
TTITLE8=Alliance - Stand Strong
TTITLE9=Quinton Mills - It Don't Matter Where You've Been
TTITLE10=Royal Heirs - Remind Me Dear Lord
TTITLE11=The Barkley Family - Out Of The Grave
TTITLE12=Jack Mounts - Windows Of My Soul
TTITLE13=Mandy Keith - New Old Fashioned Way
TTITLE14=Kevin Spencer and Friends - Come and Dine
TTITLE15=Kevin Spencer and Friends - Happy Anniversary
TTITLE16=Kevin Spencer and Friends - Happy Birthday
TTITLE17=Kevin Spencer and Friends - Shortest Gospel Song
EXTD=
EXTT0=
EXTT1=
EXTT2=
EXTT3=
EXTT4=
EXTT5=
EXTT6=
EXTT7=
EXTT8=
EXTT9=
EXTT10=
EXTT11=
EXTT12=
EXTT13=
EXTT14=
EXTT15=
EXTT16=
EXTT17=
PLAYORDER=
